# xmcd
#
# Track frame offsets:
#	182
#	20355
#	36982
#	58137
#
# Disc length: 1151 seconds
#
# Revision: 1
# Processed by: cddbd v1.4PL0 Copyright (c) Steve Scherf et al.
# Submitted via: CDmax 1.9
#
DISCID=2f047d04
DTITLE=Mary J Blige - Be Happy
DYEAR=1994
DGENRE=R&b
TTITLE0=Be Happy (U.S. Radio Edit)
TTITLE1=Be Happy (Ron G.H. and R Funk Mix)
TTITLE2=Be Happy (Bad Boy Butter Mix)
TTITLE3=Be Happy (UBQ Dub Be Happy)
EXTD=
EXTT0=
EXTT1=
EXTT2=
EXTT3=
PLAYORDER=
